<svg version="1.0" xmlns="http://www.w3.org/2000/svg" width="682.667" height="682.667" viewBox="0 0 512 512"><path d="M96.4 49.5c-43.2 9.4-67.5 55.3-51.2 96.5 2.8 7.1 5.2 11.2 10.4 18 5.4 7.2 10.8 11.8 21.9 18.7 56.3 34.9 93.8 90.1 104.4 153.8 3 18.1 3.3 21.2 3.6 44.5.3 24.4 1.6 31.6 8.1 44.4 11.7 23.2 35.5 38.1 61.5 38.4 29.2.3 54.3-17.1 65.8-45.5 1.6-3.7 3.1-8.4 3.5-10.3.3-1.9.8-4.6 1.1-6 .3-1.4.8-12 1.1-23.5.2-11.6.6-22.4.8-24 .2-1.7.7-5.7 1.1-9 .3-3.3.8-6.7 1-7.5.3-.8.7-3.1 1-5 2.9-17.3 10.4-39.3 20.1-58.7 19.1-38.5 46.2-68 84.4-91.9 19-11.9 30.8-27.9 35.6-48.5 1.1-4.6 1.3-21.4.3-26.4-5.6-29.6-27.3-52.3-55.4-58-5.7-1.2-21-1.4-26-.4-11.5 2.4-14.6 3.6-28 11.4-7.2 4.1-18.7 10.7-25.7 14.7-7.5 4.4-13.3 8.4-14.2 9.9-1.4 2.3-1.6 10.3-1.7 66.5-.1 70.8-.1 71.3-6.5 84.4-8 16.4-20.4 27.5-37.3 33.3-20.7 7.1-42.7 3.1-59.8-11-8.1-6.6-13.4-13.4-18-22.9-6-12.7-6.1-13.5-6.2-83.6-.1-35.1-.5-64.8-1-66-1.3-3.4-48.1-30.4-59.1-34.2-10.1-3.4-25.5-4.3-35.6-2.1zm26.9 16.2c3.2.7 7.2 2 9 2.9 5.9 3 42.7 24.6 43.2 25.3.2.5.5 28.4.5 62.2.1 55 .3 62.2 1.9 68.9 3.9 16.7 10.2 28.1 22.1 40 15.6 15.7 34.7 23.8 56 23.8 7.8 0 21.6-2.4 27.5-4.8 8.1-3.4 10.4-4.6 16-8.3 16.9-11.5 29.2-28.8 33.9-47.9 2.5-9.9 2.5-9.9 2.6-74.8l.1-59.5 15.6-9c32.9-19 33.7-19.4 47.4-20 24.1-1.2 46.1 14 54.1 37.3 1.8 5.4 2.2 8.9 2.2 17.7 0 11.6-.7 14.8-5.5 25.1-4.7 9.8-11.6 16.5-27.8 27.1-18.3 12-27.6 19.5-42.1 34.2-23.5 23.7-40 49.2-53.2 82.1-2.8 7.1-9.4 28.6-10.4 34-.3 1.4-1.1 5.6-1.9 9.5-.8 3.8-1.6 9.5-2 12.5-.3 3-.8 7.6-1.1 10.2-.3 2.7-.7 13.7-.9 24.5-.4 25.9-2.6 34.4-12 47.3-26 35.4-80.6 25.9-94.1-16.4-2.3-7.4-2.6-9.9-2.9-28.6-.3-21.7-.6-25.5-3.1-44.5-1.1-8.3-5.6-26.2-9.4-37.6-11.8-35.6-30.1-65.6-55.9-92.2-13.7-14.1-28.2-25.7-47.1-37.6-19.8-12.5-28.7-26.9-29.6-47.6-.6-16.3 4.5-29.4 16.1-41.1 13.7-13.8 32-19.1 50.8-14.7z"/><path d="M244.1 73.6c-16.9 4.5-30.1 18-34.6 35.1-2.2 8.6-2.1 103 .2 111.7 7.6 29.5 41.2 43.9 69.1 29.7 6-3.1 15.4-12.2 18.6-18.1 6.6-12.1 6.6-12 6.3-70-.2-40.6-.5-53.3-1.5-56-3.1-8.2-8.7-16.8-14.2-21.8-3.9-3.5-13-8.6-18-10.1-6.6-2-19.5-2.2-25.9-.5z"/></svg>