<?xml version="1.0" standalone="no"?>
<!DOCTYPE svg PUBLIC "-//W3C//DTD SVG 20010904//EN"
 "http://www.w3.org/TR/2001/REC-SVG-20010904/DTD/svg10.dtd">
<svg version="1.0" xmlns="http://www.w3.org/2000/svg"
 width="512.000000pt" height="512.000000pt" viewBox="0 0 512.000000 512.000000"
 preserveAspectRatio="xMidYMid meet">
<metadata>
Created by potrace 1.14, written by Peter Selinger 2001-2017
</metadata>
<g transform="translate(0.000000,512.000000) scale(0.100000,-0.100000)"
fill="#000000" stroke="none">
<path d="M964 4625 c-432 -94 -675 -553 -512 -965 28 -71 52 -112 104 -180 54
-72 108 -118 219 -187 563 -349 938 -901 1044 -1538 30 -181 33 -212 36 -445
3 -244 16 -316 81 -444 117 -232 355 -381 615 -384 292 -3 543 171 658 455 16
37 31 84 35 103 3 19 8 46 11 60 3 14 8 120 11 235 2 116 6 224 8 240 2 17 7
57 11 90 3 33 8 67 10 75 3 8 7 31 10 50 29 173 104 393 201 587 191 385 462
680 844 919 190 119 308 279 356 485 11 46 13 214 3 264 -56 296 -273 523
-554 580 -57 12 -210 14 -260 4 -115 -24 -146 -36 -280 -114 -72 -41 -187
-107 -257 -147 -75 -44 -133 -84 -142 -99 -14 -23 -16 -103 -17 -665 -1 -708
-1 -713 -65 -844 -80 -164 -204 -275 -373 -333 -207 -71 -427 -31 -598 110
-81 66 -134 134 -180 229 -60 127 -61 135 -62 836 -1 351 -5 648 -10 660 -13
34 -481 304 -591 342 -101 34 -255 43 -356 21z m269 -162 c32 -7 72 -20 90
-29 59 -30 427 -246 432 -253 2 -5 5 -284 5 -622 1 -550 3 -622 19 -689 39
-167 102 -281 221 -400 156 -157 347 -238 560 -238 78 0 216 24 275 48 81 34
104 46 160 83 169 115 292 288 339 479 25 99 25 99 26 748 l1 595 156 90 c329
190 337 194 474 200 241 12 461 -140 541 -373 18 -54 22 -89 22 -177 0 -116
-7 -148 -55 -251 -47 -98 -116 -165 -278 -271 -183 -120 -276 -195 -421 -342
-235 -237 -400 -492 -532 -821 -28 -71 -94 -286 -104 -340 -3 -14 -11 -56 -19
-95 -8 -38 -16 -95 -20 -125 -3 -30 -8 -76 -11 -102 -3 -27 -7 -137 -9 -245
-4 -259 -26 -344 -120 -473 -260 -354 -806 -259 -941 164 -23 74 -26 99 -29
286 -3 217 -6 255 -31 445 -11 83 -56 262 -94 376 -118 356 -301 656 -559 922
-137 141 -282 257 -471 376 -198 125 -287 269 -296 476 -6 163 45 294 161 411
137 138 320 191 508 147z"/>
<path d="M2441 4384 c-169 -45 -301 -180 -346 -351 -22 -86 -21 -1030 2 -1117
76 -295 412 -439 691 -297 60 31 154 122 186 181 66 121 66 120 63 700 -2 406
-5 533 -15 560 -31 82 -87 168 -142 218 -39 35 -130 86 -180 101 -66 20 -195
22 -259 5z"/>
</g>
</svg>
